<?xml version="1.0" encoding="utf-8"?>
<!-- Generator: Adobe Illustrator 16.0.0, SVG Export Plug-In . SVG Version: 6.00 Build 0)  -->
<!DOCTYPE svg PUBLIC "-//W3C//DTD SVG 1.1//EN" "http://www.w3.org/Graphics/SVG/1.1/DTD/svg11.dtd">
<svg version="1.1" id="Layer_1" xmlns:sketch="http://www.bohemiancoding.com/sketch/ns"
	 xmlns="http://www.w3.org/2000/svg" xmlns:xlink="http://www.w3.org/1999/xlink" x="0px" y="0px" width="48.428px" height="49px"
	 viewBox="0 0 48.428 49" enable-background="new 0 0 48.428 49" xml:space="preserve">
<title>Imported Layers Copy 3</title>
<desc>Created with Sketch.</desc>
<g id="_x31_-Home" transform="translate(-40.000000, -28.000000)" sketch:type="MSArtboardGroup">
	<g id="_x2D_" transform="translate(1.000000, -7.000000)" sketch:type="MSLayerGroup">
		<g id="Imported-Layers-Copy-3" transform="translate(38.651000, 35.000000)" sketch:type="MSShapeGroup">
			<path id="Fill-17" fill="#FF5B1A" d="M24.62,0.169c-13.32,0-24.157,10.855-24.157,24.198c0,13.343,10.837,24.197,24.157,24.197
				S48.777,37.71,48.777,24.367C48.777,11.024,37.94,0.169,24.62,0.169L24.62,0.169z M38.392,42.01
				c-0.579-0.488-1.322-0.789-2.139-0.789c-1.835,0-3.324,1.49-3.324,3.33c0,0.204,0.025,0.4,0.062,0.594
				c-2.587,1.051-5.412,1.635-8.372,1.635s-5.786-0.586-8.375-1.637c0.137-0.748,0.024-1.545-0.386-2.258
				c-0.917-1.592-2.951-2.137-4.54-1.218c-0.172,0.101-0.326,0.217-0.472,0.341c-4.455-3.498-7.557-8.648-8.378-14.523
				c0.713-0.256,1.344-0.75,1.753-1.459c0.918-1.591,0.374-3.629-1.217-4.548c-0.173-0.1-0.353-0.176-0.534-0.241
				c0.822-5.87,3.923-11.014,8.375-14.511c0.578,0.489,1.32,0.787,2.136,0.788c1.834,0,3.324-1.491,3.324-3.33
				c0-0.203-0.025-0.399-0.062-0.592c2.59-1.051,5.417-1.636,8.378-1.636c2.959,0,5.783,0.584,8.37,1.633
				c-0.137,0.749-0.023,1.548,0.387,2.26c0.917,1.591,2.95,2.138,4.54,1.218c0.173-0.1,0.328-0.218,0.475-0.344
				c4.454,3.495,7.555,8.64,8.379,14.51c-0.715,0.255-1.349,0.752-1.758,1.463c-0.917,1.591-0.374,3.628,1.217,4.548
				c0.176,0.102,0.358,0.178,0.544,0.241C45.951,33.361,42.849,38.512,38.392,42.01L38.392,42.01z M39.577,17.63
				c0,1.839-1.488,3.33-3.324,3.33c-1.835,0-3.324-1.491-3.324-3.33s1.489-3.329,3.324-3.329
				C38.089,14.301,39.577,15.792,39.577,17.63L39.577,17.63z M39.577,31.09c0,1.84-1.488,3.33-3.324,3.33
				c-1.835,0-3.324-1.49-3.324-3.33c0-1.838,1.489-3.328,3.324-3.328C38.089,27.762,39.577,29.252,39.577,31.09L39.577,31.09z
				 M36.253,26.025c-0.917,0-1.662-0.745-1.662-1.666c0-0.919,0.745-1.665,1.662-1.665s1.662,0.746,1.662,1.665
				C37.915,25.28,37.17,26.025,36.253,26.025L36.253,26.025z M28.772,14.266c0-0.919,0.745-1.665,1.662-1.665
				s1.662,0.746,1.662,1.665s-0.745,1.665-1.662,1.665C29.517,15.93,28.772,15.185,28.772,14.266L28.772,14.266z M43.733,20.996
				c0,0.919-0.744,1.665-1.662,1.665c-0.917,0-1.662-0.745-1.662-1.665s0.745-1.665,1.662-1.665
				C42.989,19.331,43.733,20.076,43.733,20.996L43.733,20.996z M37.915,37.82c0,0.92-0.745,1.664-1.662,1.664
				s-1.662-0.744-1.662-1.664s0.745-1.664,1.662-1.664S37.915,36.9,37.915,37.82L37.915,37.82z M32.097,7.549
				c0,0.919-0.744,1.665-1.662,1.665s-1.662-0.745-1.662-1.665s0.744-1.665,1.662-1.665S32.097,6.629,32.097,7.549L32.097,7.549z
				 M27.94,10.9c0,1.84-1.489,3.329-3.324,3.329s-3.324-1.489-3.324-3.329c0-1.839,1.489-3.329,3.324-3.329S27.94,9.062,27.94,10.9
				L27.94,10.9z M20.46,14.279c0,0.919-0.745,1.665-1.662,1.665c-0.918,0-1.662-0.745-1.662-1.665c0-0.92,0.744-1.665,1.662-1.665
				C19.716,12.614,20.46,13.359,20.46,14.279L20.46,14.279z M11.318,10.914c0-0.919,0.745-1.665,1.662-1.665
				s1.662,0.745,1.662,1.665s-0.745,1.665-1.662,1.665S11.318,11.834,11.318,10.914L11.318,10.914z M16.304,17.643
				c0,1.839-1.489,3.33-3.324,3.33s-3.324-1.491-3.324-3.33c0-1.838,1.489-3.329,3.324-3.329S16.304,15.805,16.304,17.643
				L16.304,17.643z M12.98,26.039c-0.917,0-1.662-0.746-1.662-1.665c0-0.92,0.745-1.666,1.662-1.666s1.662,0.745,1.662,1.666
				C14.642,25.293,13.897,26.039,12.98,26.039L12.98,26.039z M8.823,27.727c0,0.918-0.745,1.664-1.662,1.664
				s-1.662-0.746-1.662-1.664c0-0.92,0.744-1.666,1.662-1.666S8.823,26.807,8.823,27.727L8.823,27.727z M20.46,34.455
				c0,0.92-0.745,1.664-1.662,1.664c-0.918,0-1.662-0.744-1.662-1.664s0.744-1.665,1.662-1.665
				C19.716,32.79,20.46,33.535,20.46,34.455L20.46,34.455z M20.46,41.186c0,0.92-0.745,1.664-1.662,1.664
				c-0.918,0-1.662-0.744-1.662-1.664s0.744-1.666,1.662-1.666C19.716,39.52,20.46,40.266,20.46,41.186L20.46,41.186z M27.94,37.82
				c0,1.839-1.489,3.33-3.324,3.33s-3.324-1.491-3.324-3.33c0-1.84,1.489-3.329,3.324-3.329S27.94,35.98,27.94,37.82L27.94,37.82z
				 M32.097,34.455c0,0.92-0.744,1.664-1.662,1.664s-1.662-0.744-1.662-1.664s0.744-1.665,1.662-1.665S32.097,33.535,32.097,34.455
				L32.097,34.455z M16.304,31.104c0,1.84-1.489,3.33-3.324,3.33s-3.324-1.49-3.324-3.33s1.489-3.328,3.324-3.328
				S16.304,29.264,16.304,31.104L16.304,31.104z"/>
		</g>
	</g>
</g>
</svg>
